<svg width="19" height="22" viewBox="0 0 19 22" fill="none" xmlns="http://www.w3.org/2000/svg">
<path d="M18.4911 6.875C18.771 6.875 19 6.64297 19 6.35938V4.64062C19 4.35703 18.771 4.125 18.4911 4.125H17.6429V2.0625C17.6429 0.923828 16.731 0 15.6071 0H2.03571C0.91183 0 0 0.923828 0 2.0625V19.9375C0 21.0762 0.91183 22 2.03571 22H15.6071C16.731 22 17.6429 21.0762 17.6429 19.9375V17.875H18.4911C18.771 17.875 19 17.643 19 17.3594V15.6406C19 15.357 18.771 15.125 18.4911 15.125H17.6429V12.375H18.4911C18.771 12.375 19 12.143 19 11.8594V10.1406C19 9.85703 18.771 9.625 18.4911 9.625H17.6429V6.875H18.4911ZM15.6071 19.9375H2.03571V2.0625H15.6071V19.9375ZM8.82143 11C10.3185 11 11.5357 9.7668 11.5357 8.25C11.5357 6.7332 10.3185 5.5 8.82143 5.5C7.32433 5.5 6.10714 6.7332 6.10714 8.25C6.10714 9.7668 7.32433 11 8.82143 11ZM5.02143 16.5H12.6214C13.1473 16.5 13.5714 16.1305 13.5714 15.675V14.85C13.5714 13.4836 12.2949 12.375 10.7214 12.375C10.2634 12.375 9.92835 12.7188 8.82143 12.7188C7.68058 12.7188 7.40491 12.375 6.92143 12.375C5.34799 12.375 4.07143 13.4836 4.07143 14.85V15.675C4.07143 16.1305 4.49554 16.5 5.02143 16.5Z" fill="black"/>
</svg>
