<svg width="21" height="20" viewBox="0 0 21 20" fill="none" xmlns="http://www.w3.org/2000/svg">
<path d="M20.1062 9.76831L11.0818 0.217519C11.0168 0.148566 10.9396 0.0938616 10.8547 0.0565369C10.7697 0.0192122 10.6786 0 10.5866 0C10.4946 0 10.4036 0.0192122 10.3186 0.0565369C10.2336 0.0938616 10.1565 0.148566 10.0915 0.217519L1.06708 9.76831C0.804165 10.0468 0.655182 10.425 0.655182 10.8195C0.655182 11.6386 1.28398 12.3045 2.05737 12.3045H3.00823V19.1195C3.00823 19.5303 3.32153 19.8621 3.70933 19.8621H9.18444V14.6644H11.6383V19.8621H17.4639C17.8517 19.8621 18.165 19.5303 18.165 19.1195V12.3045H19.1159C19.4883 12.3045 19.8455 12.149 20.1084 11.8683C20.6539 11.2882 20.6539 10.3484 20.1062 9.76831Z" fill="black"/>
</svg>
