<svg width="22" height="19" viewBox="0 0 22 19" fill="none" xmlns="http://www.w3.org/2000/svg">
<path d="M19 0C19.7956 0 20.5587 0.300267 21.1213 0.834746C21.6839 1.36922 22 2.09413 22 2.85V4.75H20V16.15C20 16.9059 19.6839 17.6308 19.1213 18.1653C18.5587 18.6997 17.7956 19 17 19H3C2.20435 19 1.44129 18.6997 0.87868 18.1653C0.31607 17.6308 0 16.9059 0 16.15V14.25H16V16.15C16 16.3827 16.09 16.6073 16.2527 16.7812C16.4155 16.955 16.6397 17.0661 16.883 17.0933L17 17.1C17.2449 17.1 17.4813 17.0145 17.6644 16.8599C17.8474 16.7053 17.9643 16.4922 17.993 16.2612L18 16.15V1.9H5C4.75507 1.90003 4.51866 1.98546 4.33563 2.14008C4.15259 2.2947 4.03566 2.50776 4.007 2.73885L4 2.85V12.35H2V2.85C2 2.09413 2.31607 1.36922 2.87868 0.834746C3.44129 0.300267 4.20435 0 5 0H19Z" fill="black"/>
</svg>
